{
    "asset" : {
        "generator" : "Khronos glTF Blender I/O v3.2.40",
        "version" : "2.0"
    },
    "scene" : 0,
    "scenes" : [
        {
            "name" : "Scene",
            "nodes" : [
                8
            ]
        }
    ],
    "nodes" : [
        {
            "mesh" : 0,
            "name" : "0 - Logo TRI_Mat\ufffd\ufffdriau.003_0"
        },
        {
            "children" : [
                0
            ],
            "name" : "0 - Logo TRI",
            "rotation" : [
                -0.7071068286895752,
                0,
                0,
                0.7071067094802856
            ],
            "scale" : [
                100,
                99.99999237060547,
                99.99999237060547
            ]
        },
        {
            "mesh" : 1,
            "name" : "0 - RA B_Mat\ufffd\ufffdriau.001_0"
        },
        {
            "children" : [
                2
            ],
            "name" : "0 - RA B",
            "rotation" : [
                -0.7071068286895752,
                0,
                0,
                0.7071067094802856
            ],
            "scale" : [
                100,
                99.99999237060547,
                99.99999237060547
            ]
        },
        {
            "mesh" : 2,
            "name" : "Plan.001__0",
            "scale" : [
                3.6410324573516846,
                1.9974533319473267,
                1.997453212738037
            ]
        },
        {
            "children" : [
                4
            ],
            "name" : "Plan.001",
            "rotation" : [
                -0.7071068286895752,
                0,
                0,
                0.7071067094802856
            ],
            "scale" : [
                736.6919555664062,
                917.2407836914062,
                736.6918334960938
            ]
        },
        {
            "children" : [
                1,
                3,
                5
            ],
            "name" : "RootNode"
        },
        {
            "children" : [
                6
            ],
            "name" : "abb9590a33ce4393b748b0b899a58e2c.fbx",
            "rotation" : [
                0.7071068286895752,
                0,
                0,
                0.7071067094802856
            ],
            "scale" : [
                0.009999999776482582,
                0.010000000707805157,
                0.010000000707805157
            ]
        },
        {
            "children" : [
                7
            ],
            "name" : "Sketchfab_model",
            "rotation" : [
                -0.7071068286895752,
                0,
                0,
                0.7071067094802856
            ]
        }
    ],
    "materials" : [
        {
            "doubleSided" : true,
            "name" : "Matriau.003",
            "pbrMetallicRoughness" : {}
        },
        {
            "alphaCutoff" : 0.08380977809429169,
            "alphaMode" : "MASK",
            "name" : "Matriau.001",
            "pbrMetallicRoughness" : {}
        },
        {
            "doubleSided" : true,
            "name" : "Plan.001__0",
            "pbrMetallicRoughness" : {}
        }
    ],
    "meshes" : [
        {
            "name" : "0 - Logo TRI_Mat\ufffd\ufffdriau.003_0",
            "primitives" : [
                {
                    "attributes" : {
                        "POSITION" : 0,
                        "NORMAL" : 1,
                        "TEXCOORD_0" : 2
                    },
                    "indices" : 3,
                    "material" : 0
                }
            ]
        },
        {
            "name" : "0 - RA B_Mat\ufffd\ufffdriau.001_0",
            "primitives" : [
                {
                    "attributes" : {
                        "POSITION" : 4,
                        "NORMAL" : 5,
                        "TEXCOORD_0" : 6
                    },
                    "indices" : 7,
                    "material" : 1
                }
            ]
        },
        {
            "name" : "Plan.001__0",
            "primitives" : [
                {
                    "attributes" : {
                        "POSITION" : 8,
                        "NORMAL" : 9
                    },
                    "indices" : 10,
                    "material" : 2
                }
            ]
        }
    ],
    "accessors" : [
        {
            "bufferView" : 0,
            "componentType" : 5126,
            "count" : 14631,
            "max" : [
                5.6663031578063965,
                9.549056053161621,
                3.019521713256836
            ],
            "min" : [
                -5.641052722930908,
                -5.862734794616699,
                2.006530523300171
            ],
            "type" : "VEC3"
        },
        {
            "bufferView" : 1,
            "componentType" : 5126,
            "count" : 14631,
            "type" : "VEC3"
        },
        {
            "bufferView" : 2,
            "componentType" : 5126,
            "count" : 14631,
            "type" : "VEC2"
        },
        {
            "bufferView" : 3,
            "componentType" : 5123,
            "count" : 33867,
            "type" : "SCALAR"
        },
        {
            "bufferView" : 4,
            "componentType" : 5126,
            "count" : 39740,
            "max" : [
                7.015572547912598,
                11.942608833312988,
                3.832411766052246
            ],
            "min" : [
                -6.9743218421936035,
                -11.299778938293457,
                -0.10017657279968262
            ],
            "type" : "VEC3"
        },
        {
            "bufferView" : 5,
            "componentType" : 5126,
            "count" : 39740,
            "type" : "VEC3"
        },
        {
            "bufferView" : 6,
            "componentType" : 5126,
            "count" : 39740,
            "type" : "VEC2"
        },
        {
            "bufferView" : 7,
            "componentType" : 5123,
            "count" : 56703,
            "type" : "SCALAR"
        },
        {
            "bufferView" : 8,
            "componentType" : 5126,
            "count" : 24,
            "max" : [
                1,
                1.3029588460922241,
                -1.1791475117206573e-05
            ],
            "min" : [
                -1,
                -1.3029588460922241,
                -0.013574195094406605
            ],
            "type" : "VEC3"
        },
        {
            "bufferView" : 9,
            "componentType" : 5126,
            "count" : 24,
            "type" : "VEC3"
        },
        {
            "bufferView" : 10,
            "componentType" : 5123,
            "count" : 36,
            "type" : "SCALAR"
        }
    ],
    "bufferViews" : [
        {
            "buffer" : 0,
            "byteLength" : 175572,
            "byteOffset" : 0
        },
        {
            "buffer" : 0,
            "byteLength" : 175572,
            "byteOffset" : 175572
        },
        {
            "buffer" : 0,
            "byteLength" : 117048,
            "byteOffset" : 351144
        },
        {
            "buffer" : 0,
            "byteLength" : 67734,
            "byteOffset" : 468192
        },
        {
            "buffer" : 0,
            "byteLength" : 476880,
            "byteOffset" : 535928
        },
        {
            "buffer" : 0,
            "byteLength" : 476880,
            "byteOffset" : 1012808
        },
        {
            "buffer" : 0,
            "byteLength" : 317920,
            "byteOffset" : 1489688
        },
        {
            "buffer" : 0,
            "byteLength" : 113406,
            "byteOffset" : 1807608
        },
        {
            "buffer" : 0,
            "byteLength" : 288,
            "byteOffset" : 1921016
        },
        {
            "buffer" : 0,
            "byteLength" : 288,
            "byteOffset" : 1921304
        },
        {
            "buffer" : 0,
            "byteLength" : 72,
            "byteOffset" : 1921592
        }
    ],
    "buffers" : [
        {
            "byteLength" : 1921664,
            "uri" : "data:application/octet-stream;base64,"
        }
    ]
}
